<?xml version="1.0" standalone="no"?>
<!DOCTYPE svg PUBLIC "-//W3C//DTD SVG 20010904//EN"
 "http://www.w3.org/TR/2001/REC-SVG-20010904/DTD/svg10.dtd">
<svg version="1.0" xmlns="http://www.w3.org/2000/svg"
 width="260.000000pt" height="260.000000pt" viewBox="0 0 260.000000 260.000000"
 preserveAspectRatio="xMidYMid meet">
<metadata>
Created by potrace 1.11, written by Peter Selinger 2001-2013
</metadata>
<g transform="translate(0.000000,260.000000) scale(0.100000,-0.100000)"
fill="#000000" stroke="none">
<path d="M302 1823 c-6 -3 -10 -8 -7 -13 3 -5 -3 -7 -12 -5 -10 1 -29 -7 -43
-19 -13 -11 -20 -14 -15 -6 9 14 9 14 -5 0 -8 -8 -27 -21 -43 -29 -20 -11 -24
-17 -15 -23 10 -6 10 -8 0 -8 -7 0 -10 -4 -7 -10 5 -9 -7 -14 -26 -12 -4 1 -5
-7 -2 -18 3 -13 -1 -22 -11 -26 -14 -6 -17 -21 -15 -105 1 -91 3 -98 19 -89
15 8 17 6 13 -10 -3 -12 5 -31 21 -51 14 -17 26 -29 26 -26 0 2 16 -11 36 -30
20 -19 39 -32 42 -29 3 3 11 -2 19 -12 8 -9 11 -11 7 -3 -4 7 8 3 27 -10 19
-13 36 -27 37 -31 2 -5 10 -8 18 -8 8 0 14 -5 14 -11 0 -5 4 -8 9 -5 5 3 14
-1 21 -10 7 -8 19 -13 26 -10 7 3 15 -2 18 -10 3 -8 15 -14 26 -14 12 0 18 -4
15 -10 -3 -5 0 -10 8 -10 7 0 23 -9 35 -20 11 -11 28 -17 36 -14 11 4 16 0 16
-12 0 -9 3 -14 6 -11 9 9 46 -12 39 -23 -3 -4 2 -7 12 -6 9 2 25 -6 35 -16 10
-10 23 -16 28 -13 6 4 13 -1 16 -9 3 -9 15 -16 25 -16 10 0 19 -4 19 -9 0 -5
10 -11 23 -13 12 -2 21 -9 20 -15 -2 -7 6 -10 17 -8 12 2 18 0 15 -6 -4 -5 1
-9 9 -9 9 0 16 -5 16 -11 0 -5 4 -8 9 -5 5 3 12 -1 15 -10 3 -9 12 -14 19 -11
6 2 25 -7 41 -22 16 -14 26 -19 22 -11 -4 8 0 6 8 -4 9 -11 16 -16 16 -12 0 5
6 3 13 -3 8 -6 17 -7 21 -3 4 4 6 0 4 -8 -2 -10 3 -14 15 -12 9 2 17 -1 17 -6
0 -4 7 -17 16 -28 8 -10 13 -13 9 -6 -3 6 -1 12 4 12 6 0 11 -7 11 -15 0 -8 3
-14 8 -13 14 3 42 -14 36 -23 -7 -13 19 -7 28 6 5 6 8 5 8 -3 0 -7 4 -10 10
-7 5 3 7 0 4 -8 -8 -23 161 -24 174 -1 5 8 11 15 13 13 9 -5 49 13 49 22 0 6
5 7 10 4 6 -3 10 -1 10 4 0 6 6 10 13 8 6 -1 11 4 9 11 -1 8 2 11 8 7 5 -3 13
1 16 10 4 9 12 14 19 11 7 -2 19 4 28 15 10 11 23 16 32 13 10 -4 15 -2 13 6
-2 7 6 14 17 16 11 1 21 8 23 13 2 6 9 11 17 11 7 0 18 7 25 15 7 9 18 14 24
12 14 -6 37 18 28 29 -4 4 -2 4 4 1 7 -4 17 0 24 8 7 8 16 12 21 10 4 -3 18 4
29 15 11 11 25 18 30 15 5 -3 15 3 22 13 7 9 20 17 28 17 8 0 22 7 31 17 9 10
21 18 27 18 6 0 17 6 25 14 8 8 22 16 33 18 10 2 27 11 37 21 10 10 25 16 33
13 8 -3 12 -2 9 3 -3 5 4 12 15 16 11 3 20 11 20 16 0 5 7 9 16 9 8 0 22 7 31
15 8 8 19 13 24 10 5 -4 9 -2 9 3 0 5 13 15 30 22 17 7 30 16 30 21 0 5 9 9
20 9 11 0 20 7 20 16 0 8 4 12 10 9 15 -9 110 61 110 81 0 7 7 15 16 18 8 3
12 10 9 16 -3 6 0 13 9 16 9 3 12 12 9 21 -4 10 -2 14 4 10 5 -3 10 0 10 8 0
8 -5 15 -11 15 -5 0 -1 7 10 16 10 8 14 13 8 10 -8 -4 -11 3 -10 18 0 16 5 21
11 16 7 -6 11 -2 11 9 0 12 -5 17 -15 13 -10 -4 -13 -1 -8 11 3 9 2 19 -2 21
-5 3 -6 17 -3 31 3 18 1 25 -9 23 -8 -2 -14 4 -14 12 0 30 -59 90 -113 114
-23 11 -42 23 -42 28 0 5 -9 4 -19 -2 -14 -7 -21 -6 -24 3 -3 9 -7 9 -20 -2
-10 -7 -17 -9 -17 -4 0 10 -47 9 -57 -1 -4 -3 -12 -1 -20 6 -11 8 -12 7 -8 -5
4 -8 1 -18 -6 -23 -8 -5 -10 -3 -4 7 7 11 6 12 -7 2 -8 -7 -18 -10 -21 -6 -4
3 -7 2 -7 -4 0 -6 -12 -16 -27 -22 -48 -20 -73 -37 -65 -46 4 -4 -4 -5 -17 -2
-18 4 -24 1 -28 -14 -3 -12 -11 -18 -19 -15 -8 3 -14 1 -14 -5 0 -6 -5 -7 -10
-4 -6 3 -10 1 -10 -5 0 -6 -4 -8 -10 -5 -5 3 -10 1 -10 -4 0 -6 -16 -17 -36
-26 -20 -8 -33 -19 -29 -25 4 -7 -3 -9 -19 -6 -17 3 -26 0 -26 -9 0 -7 -7 -16
-16 -19 -10 -4 -13 -2 -9 7 4 6 0 4 -8 -5 -8 -10 -17 -15 -20 -11 -4 3 -7 1
-7 -6 0 -7 -4 -9 -10 -6 -5 3 -10 -1 -10 -11 0 -11 -6 -15 -20 -11 -13 3 -20
0 -20 -10 0 -8 -4 -12 -9 -8 -5 3 -12 1 -16 -5 -4 -6 -10 -8 -15 -5 -4 3 -11
-2 -14 -11 -4 -9 -13 -14 -21 -10 -8 3 -14 0 -12 -7 1 -7 -4 -11 -10 -10 -7 2
-13 -2 -13 -8 0 -6 -7 -8 -16 -5 -8 3 -12 2 -9 -4 7 -12 -35 -31 -49 -22 -5 3
-6 0 -3 -5 8 -13 -20 -26 -36 -16 -7 3 -9 2 -4 -2 7 -8 -72 -62 -85 -57 -5 1
-8 -5 -8 -14 0 -13 -3 -14 -13 -5 -10 7 -17 7 -24 0 -8 -8 -17 -5 -32 10 -12
12 -21 18 -21 14 0 -5 -7 1 -15 11 -8 11 -15 16 -15 11 0 -4 -8 0 -19 9 -10 9
-28 18 -39 19 -12 0 -19 3 -17 5 2 2 -2 10 -8 17 -9 10 -15 10 -26 1 -12 -9
-14 -8 -8 6 3 10 3 17 -1 17 -17 -3 -31 2 -44 14 -20 18 -78 49 -78 41 0 -4
-8 3 -19 14 -10 12 -20 19 -23 17 -3 -3 -11 1 -18 10 -7 8 -21 15 -32 15 -10
0 -16 5 -13 10 3 6 -3 10 -15 10 -11 0 -23 7 -27 16 -3 9 -13 14 -23 11 -9 -2
-22 4 -29 14 -6 11 -18 19 -26 19 -8 0 -15 5 -15 11 0 5 -4 8 -9 5 -5 -3 -14
0 -20 8 -7 8 -23 17 -36 20 -14 4 -25 11 -25 17 0 6 -4 7 -10 4 -5 -3 -10 -1
-10 4 0 6 -7 11 -16 11 -8 0 -12 5 -9 10 4 6 3 10 -2 9 -22 -4 -43 2 -38 11 5
9 -15 15 -37 11 -5 0 -8 6 -8 15 0 8 -4 12 -10 9 -5 -3 -21 1 -34 10 -14 9
-30 14 -36 10 -5 -3 -10 -3 -10 2 0 4 -14 8 -30 9 -17 1 -30 -3 -30 -8 0 -5
-7 -5 -17 0 -10 5 -24 7 -31 5z"/>
</g>
</svg>
